<?xml version="1.0"?>
<svg xmlns="http://www.w3.org/2000/svg" id="Outline" viewBox="0 0 512 512" width="512" height="512"><circle cx="176" cy="136" r="8"/><circle cx="96" cy="136" r="8"/><path d="M128,160h16a8,8,0,0,0,0-16h-8v-8a8,8,0,0,0-16,0v16A8,8,0,0,0,128,160Z"/><path d="M488,304H431.062l-2-16H472a8,8,0,0,0,8-8V152a8,8,0,0,0-8-8H280a8,8,0,0,0-8,8V280a8,8,0,0,0,8,8h42.938l-2,16H240V248a40.045,40.045,0,0,0-40-40H183.945a80.3,80.3,0,0,0,28.474-40.312,31.995,31.995,0,0,0,3.251-62.752A79.941,79.941,0,0,0,111.005,36.02a48,48,0,1,0-60.424,70.94,31.989,31.989,0,0,0,9,60.728A80.3,80.3,0,0,0,88.055,208H72a40.045,40.045,0,0,0-40,40v56H24a8,8,0,0,0-8,8v48a8,8,0,0,0,8,8H48V488a8,8,0,0,0,16,0V368H448V488a8,8,0,0,0,16,0V368h24a8,8,0,0,0,8-8V312A8,8,0,0,0,488,304ZM216,144V122.165a15.972,15.972,0,0,1-.247,27.82C215.9,148.007,216,146.016,216,144Zm72,16H464v80H288Zm0,112V256H464v16Zm126.938,32H337.062l2-16h73.876ZM199.428,103.574c-17.88-1.781-29.162-8.889-35.224-14.152a180.9,180.9,0,0,0,22.229-16.754A63.681,63.681,0,0,1,199.428,103.574ZM136,48a63.663,63.663,0,0,1,39.05,13.346c-11.084,9.655-49.359,39.441-102.5,42.409A64.082,64.082,0,0,1,136,48ZM48,136a16,16,0,0,1,8-13.835V144c0,2.016.1,4.007.247,5.985A16.007,16.007,0,0,1,48,136ZM58.315,92.928A32,32,0,1,1,95.948,42.792,80.28,80.28,0,0,0,58.315,92.928ZM72,144V119.807c31.457-1.465,58.014-11.346,77.9-21.966,7.143,7.344,23.015,19.758,50.1,21.853V144a64,64,0,0,1-128,0Zm75.056,80L136,246.111,124.944,224ZM48,248a24.028,24.028,0,0,1,24-24h35.056l21.789,43.578a8,8,0,0,0,14.31,0L164.944,224H200a24.028,24.028,0,0,1,24,24v56H48ZM480,352H32V320H480Z"/><path d="M312,448a8,8,0,0,0,8-8V392a8,8,0,0,0-8-8H200a8,8,0,0,0-8,8v48a8,8,0,0,0,8,8ZM208,400h96v32H208Z"/><path d="M104,160a7.987,7.987,0,0,0-7.149,11.575l-.006,0c.016.033.053.1.1.191.015.027.029.054.044.08C98.323,174.326,108.81,192,136,192s37.677-17.674,39.012-20.151c.015-.026.029-.053.044-.08.046-.088.083-.158.1-.191l-.006,0a7.993,7.993,0,1,0-14.3-7.15l-.006,0,.053-.1C160.641,164.8,154.388,176,136,176s-24.641-11.205-24.9-11.683l.053.1-.006,0A7.992,7.992,0,0,0,104,160Z"/></svg>
