<?xml version="1.0"?>
<svg xmlns="http://www.w3.org/2000/svg" id="Outline" viewBox="0 0 512 512" width="512" height="512"><path d="M496,192V144a8,8,0,0,0-8-8H408V64a8,8,0,0,0-8-8H325.211A79.876,79.876,0,0,0,186.79,56H112a8,8,0,0,0-8,8v72H24a8,8,0,0,0-8,8v48a8,8,0,0,0-8,8v40a31.862,31.862,0,0,0,8,21.132V488a8,8,0,0,0,8,8H488a8,8,0,0,0,8-8V261.132A31.862,31.862,0,0,0,504,240V200A8,8,0,0,0,496,192ZM120,72h71.573a8,8,0,0,0,7.162-4.436,63.887,63.887,0,0,1,114.531,0A8,8,0,0,0,320.428,72H392v64H309.558a8,8,0,0,0-5.956,2.659,63.76,63.76,0,0,1-95.2,0A8,8,0,0,0,202.442,136H120ZM32,152H198.982a79.73,79.73,0,0,0,114.036,0H480v40H32Zm0,152H96V448H32Zm80,0h64V448H112Zm80,0h64V448H192Zm80,0h64V448H272Zm80,0h56V480H352ZM32,288V270.987a31.969,31.969,0,0,0,32-9.855,31.934,31.934,0,0,0,48,0,31.934,31.934,0,0,0,48,0,31.934,31.934,0,0,0,48,0,31.934,31.934,0,0,0,48,0,31.934,31.934,0,0,0,48,0,31.934,31.934,0,0,0,48,0,31.934,31.934,0,0,0,48,0,31.934,31.934,0,0,0,48,0,31.969,31.969,0,0,0,32,9.855V288Zm-8-80H56v32a16,16,0,0,1-32,0Zm48,0h32v32a16,16,0,0,1-32,0Zm48,0h32v32a16,16,0,0,1-32,0Zm48,0h32v32a16,16,0,0,1-32,0Zm48,0h32v32a16,16,0,0,1-32,0Zm48,0h32v32a16,16,0,0,1-32,0Zm48,0h32v32a16,16,0,0,1-32,0Zm48,0h32v32a16,16,0,0,1-32,0Zm48,0h32v32a16,16,0,0,1-32,0Zm80,32a16,16,0,0,1-32,0V208h32ZM32,464H336v16H32Zm392,16V304h56V480Z"/><path d="M248.845,139.578a8,8,0,0,0,14.31,0l32-64a8,8,0,0,0-1.195-8.915C293.277,65.9,277.006,48,256,48s-37.277,17.9-37.96,18.663a8,8,0,0,0-1.195,8.915ZM256,118.111,247.092,100.3c6.364-5.721,11.452-5.721,17.816,0ZM256,64c9.117,0,17.516,5.779,22.19,9.729l-5.979,11.96c-10.534-7.55-21.888-7.55-32.422,0L233.81,73.73C238.49,69.775,246.887,64,256,64Z"/><path d="M192,96H144a8,8,0,0,0,0,16h48a8,8,0,0,0,0-16Z"/><path d="M320,112h48a8,8,0,0,0,0-16H320a8,8,0,0,0,0,16Z"/><circle cx="392" cy="392" r="8"/><circle cx="440" cy="392" r="8"/></svg>
